HIERARCHY
ROOT Hips
{
	OFFSET 0.000000 0.000000 0.000000
	CHANNELS 6 Xposition Yposition Zposition Zrotation Yrotation Xrotation 
	JOINT LowerBack
	{
		OFFSET 0.000000 0.000000 0.000000
		CHANNELS 3 Zrotation Yrotation Xrotation
		JOINT Spine
		{
			OFFSET 0.028270 2.035590 -0.193380
			CHANNELS 3 Zrotation Yrotation Xrotation
			JOINT Spine1
			{
				OFFSET 0.056720 2.048850 -0.042750
				CHANNELS 3 Zrotation Yrotation Xrotation
				JOINT Neck
				{
					OFFSET 0.000000 0.000000 0.000000
					CHANNELS 3 Zrotation Yrotation Xrotation
					JOINT Neck1
					{
						OFFSET -0.054170 1.746240 0.172020
						CHANNELS 3 Zrotation Yrotation Xrotation
						JOINT Head
						{
							OFFSET 0.104070 1.761360 -0.123970
							CHANNELS 3 Zrotation Yrotation Xrotation
							End Site
							{
								OFFSET 0.000000 0.000000 0.000000
							}
						}
					}
				}
				JOINT LeftShoulder
				{
					OFFSET 0.000000 0.000000 0.000000
					CHANNELS 3 Zrotation Yrotation Xrotation
					JOINT LeftArm
					{
						OFFSET 3.362410 1.200890 -0.311210
						CHANNELS 3 Zrotation Yrotation Xrotation
						JOINT LeftForeArm
						{
							OFFSET 4.983000 -0.000000 -0.000000
							CHANNELS 3 Zrotation Yrotation Xrotation
							JOINT LeftHand
							{
								OFFSET 3.483560 -0.000000 -0.000000
								CHANNELS 3 Zrotation Yrotation Xrotation
								JOINT LeftFingerBase
								{
									OFFSET 0.000000 0.000000 0.000000
									CHANNELS 3 Zrotation Yrotation Xrotation
									JOINT LeftHandIndex1
									{
										OFFSET 0.715260 -0.000000 -0.000000
										CHANNELS 3 Zrotation Yrotation Xrotation
										End Site
										{
											OFFSET 0.000000 0.000000 0.000000
										}
									}
								}
								JOINT LThumb
								{
									OFFSET 0.000000 0.000000 0.000000
									CHANNELS 3 Zrotation Yrotation Xrotation
									End Site
									{
										OFFSET 0.000000 0.000000 0.000000
									}
								}
							}
						}
					}
				}
				JOINT RightShoulder
				{
					OFFSET 0.000000 0.000000 0.000000
					CHANNELS 3 Zrotation Yrotation Xrotation
					JOINT RightArm
					{
						OFFSET -3.136600 1.374050 -0.404650
						CHANNELS 3 Zrotation Yrotation Xrotation
						JOINT RightForeArm
						{
							OFFSET -5.241900 -0.000000 -0.000000
							CHANNELS 3 Zrotation Yrotation Xrotation
							JOINT RightHand
							{
								OFFSET -3.444170 -0.000000 -0.000000
								CHANNELS 3 Zrotation Yrotation Xrotation
								JOINT RightFingerBase
								{
									OFFSET 0.000000 0.000000 0.000000
									CHANNELS 3 Zrotation Yrotation Xrotation
									JOINT RightHandIndex1
									{
										OFFSET -0.622530 -0.000000 -0.000000
										CHANNELS 3 Zrotation Yrotation Xrotation
										End Site
										{
											OFFSET 0.000000 0.000000 0.000000
										}
									}
								}
								JOINT RThumb
								{
									OFFSET 0.000000 0.000000 0.000000
									CHANNELS 3 Zrotation Yrotation Xrotation
									End Site
									{
										OFFSET 0.000000 0.000000 0.000000
									}
								}
							}
						}
					}
				}
			}
		}
	}
}
}
MOTION
Frames: 11
Frame Time: 0.008333
5.786568 17.022948 2.308657 -9.918659 -87.105977 8.129915 4.964564 -4.860477 -4.044806 0.906535 -5.333926 -2.898434 -4.329440 -5.340570 3.131562 8.527928 -22.187902 -8.182968 -2.335068 -0.179663 -0.091315 0.000000 0.000000 0.000000 1.979678 11.695153 0.038574 -50.881926 -7.389167 3.836445 -2.613895 -43.060722 0.002654 -0.560360 0.531293 -0.000371 -0.111058 0.125298 0.000000 0.000000 0.000000 0.000000 0.000000 0.000000 0.000000 13.729080 -21.201135 -1.151179 64.473142 -14.190443 -15.140885 4.251941 26.806944 0.007727 6.460075 2.581384 0.145483 0.090056 -0.025889 -0.000000 0.000000 0.000000 0.000000 0.000000 0.000000 0.000000 
5.636186 17.036655 2.270425 -11.184254 -87.020482 9.266703 5.072997 -4.850142 -3.978750 0.925127 -5.330082 -2.896451 -4.325526 -5.338180 3.108259 8.571117 -22.082690 -8.180881 -2.338315 -0.180082 -0.090624 0.000000 0.000000 0.000000 2.030781 11.613632 0.019527 -51.505433 -6.718179 3.619438 -2.657373 -42.534383 0.002595 -0.602793 0.561914 -0.000689 -0.111790 0.120821 0.000000 0.000000 0.000000 0.000000 0.000000 0.000000 0.000000 13.744487 -21.108314 -1.124338 64.422458 -13.865365 -15.894052 4.273922 26.211658 0.007668 6.315301 2.482447 0.136782 0.092175 -0.026535 -0.000000 0.000000 0.000000 0.000000 0.000000 0.000000 0.000000 
5.488978 17.049306 2.231036 -12.140883 -86.892529 10.085402 5.154134 -4.849688 -3.882103 0.937807 -5.333213 -2.888975 -4.325366 -5.342858 3.081559 8.623685 -21.976955 -8.183743 -2.340005 -0.180262 -0.091070 0.000000 0.000000 0.000000 2.101971 11.495517 0.006945 -52.111119 -6.032040 3.423673 -2.701648 -41.993156 0.002536 -0.670439 0.612579 -0.001210 -0.112333 0.116086 0.000000 0.000000 0.000000 0.000000 0.000000 0.000000 0.000000 13.760264 -21.019529 -1.093739 64.422177 -13.510105 -16.615805 4.287588 25.664217 0.007605 6.140761 2.384709 0.127781 0.094226 -0.027382 -0.000000 0.000000 0.000000 0.000000 0.000000 0.000000 0.000000 
5.344715 17.060654 2.191012 -12.947051 -86.723704 10.749799 5.222864 -4.855880 -3.761180 0.947274 -5.341342 -2.877052 -4.329813 -5.352392 3.053058 8.681223 -21.874821 -8.192725 -2.340950 -0.180262 -0.093022 0.000000 0.000000 0.000000 2.176120 11.352937 0.001122 -52.684533 -5.352790 3.270443 -2.746850 -41.438444 0.002474 -0.764627 0.681184 -0.002034 -0.112721 0.111093 0.000000 0.000000 0.000000 0.000000 0.000000 0.000000 0.000000 13.776194 -20.937135 -1.061093 64.463937 -13.125656 -17.289064 4.294052 25.167051 0.007588 5.945083 2.312488 0.119980 0.096144 -0.028513 -0.000000 0.000000 0.000000 0.000000 0.000000 0.000000 0.000000 
5.203182 17.070614 2.150727 -13.640635 -86.515267 11.298400 5.285199 -4.865144 -3.619712 0.954379 -5.351444 -2.861161 -4.339391 -5.363603 3.023334 8.742057 -21.783697 -8.207867 -2.342473 -0.180199 -0.096553 0.000000 0.000000 0.000000 2.244893 11.189533 0.001127 -53.219422 -4.694763 3.173410 -2.792956 -40.869466 0.002412 -0.886378 0.763915 -0.003260 -0.112969 0.105826 0.000000 0.000000 0.000000 0.000000 0.000000 0.000000 0.000000 13.798158 -20.866523 -1.027944 64.534562 -12.719570 -17.876952 4.293286 24.736060 0.007620 5.731623 2.271343 0.113682 0.097882 -0.029864 -0.000000 0.000000 0.000000 0.000000 0.000000 0.000000 0.000000 
5.064172 17.079236 2.110719 -14.321772 -86.271469 11.835276 5.352397 -4.873632 -3.464541 0.961135 -5.360684 -2.842367 -4.354463 -5.373514 2.993844 8.802823 -21.706115 -8.228564 -2.345793 -0.180192 -0.101584 0.000000 0.000000 0.000000 2.296831 11.015997 0.005894 -53.711580 -4.074983 3.143862 -2.840069 -40.282605 0.002348 -1.033437 0.856480 -0.004985 -0.113126 0.100295 0.000000 0.000000 0.000000 0.000000 0.000000 0.000000 0.000000 13.828618 -20.808677 -0.996096 64.621738 -12.292697 -18.359373 4.286964 24.367894 0.007722 5.509238 2.273595 0.109284 0.099397 -0.031417 -0.000000 0.000000 0.000000 0.000000 0.000000 0.000000 0.000000 
4.927521 17.086714 2.071253 -14.953468 -85.999990 12.320219 5.422960 -4.877422 -3.297106 0.966823 -5.365078 -2.820624 -4.375324 -5.378092 2.964832 8.863419 -21.644756 -8.252605 -2.352350 -0.180390 -0.107623 0.000000 0.000000 0.000000 2.330888 10.834712 0.013512 -54.163724 -3.500850 3.181673 -2.888053 -39.673697 0.002272 -1.202540 0.954869 -0.007111 -0.113228 0.094488 0.000000 0.000000 0.000000 0.000000 0.000000 0.000000 0.000000 13.874759 -20.764746 -0.966820 64.713312 -11.849557 -18.711407 4.275979 24.064671 0.007882 5.283007 2.316153 0.106688 0.100674 -0.033062 -0.000000 0.000000 0.000000 0.000000 0.000000 0.000000 0.000000 
4.792861 17.093404 2.032703 -15.551098 -85.711243 12.772449 5.499514 -4.872978 -3.123145 0.971761 -5.361436 -2.796804 -4.401993 -5.374133 2.937255 8.921430 -21.595471 -8.276930 -2.363250 -0.180930 -0.113921 0.000000 0.000000 0.000000 2.342711 10.652940 0.022428 -54.579435 -2.977190 3.282550 -2.936906 -39.039567 0.002177 -1.388541 1.055588 -0.009737 -0.113328 0.088412 0.000000 0.000000 0.000000 0.000000 0.000000 0.000000 0.000000 13.937891 -20.729696 -0.941172 64.800818 -11.389736 -18.937010 4.262748 23.810861 0.008102 5.065116 2.399065 0.105893 0.101693 -0.034749 -0.000000 0.000000 0.000000 0.000000 0.000000 0.000000 0.000000 
4.660112 17.099721 1.995447 -16.189659 -85.416776 13.270023 5.589526 -4.857484 -2.950629 0.977586 -5.347677 -2.772207 -4.433690 -5.359577 2.912675 8.973427 -21.553074 -8.299083 -2.378926 -0.181889 -0.119904 0.000000 0.000000 0.000000 2.325731 10.485632 0.031181 -54.962103 -2.512479 3.441863 -2.986378 -38.375786 0.002048 -1.582214 1.155199 -0.012765 -0.113501 0.082129 0.000000 0.000000 0.000000 0.000000 0.000000 0.000000 0.000000 14.015870 -20.697678 -0.920585 64.874717 -10.906218 -19.035431 4.249693 23.581337 0.008391 4.861384 2.525578 0.106897 0.102477 -0.036433 -0.000000 0.000000 0.000000 0.000000 0.000000 0.000000 0.000000 
4.528985 17.106155 1.959645 -16.853319 -85.129878 13.800054 5.690451 -4.828785 -2.784044 0.983887 -5.321571 -2.747387 -4.469530 -5.332293 2.892201 9.017826 -21.512179 -8.315961 -2.399540 -0.183323 -0.124800 0.000000 0.000000 0.000000 2.280056 10.342202 0.038159 -55.319328 -2.105782 3.647063 -3.036173 -37.680503 0.001873 -1.774520 1.251345 -0.015992 -0.113806 0.075681 0.000000 0.000000 0.000000 0.000000 0.000000 0.000000 0.000000 14.107337 -20.663072 -0.905749 64.928672 -10.393419 -19.006352 4.238464 23.354658 0.008734 4.673362 2.689467 0.109303 0.103076 -0.038038 -0.000000 0.000000 0.000000 0.000000 0.000000 0.000000 0.000000 
4.399411 17.113079 1.925029 -17.426499 -84.866282 14.243169 5.786605 -4.785785 -2.623373 0.987382 -5.280911 -2.722339 -4.509182 -5.290207 2.874610 9.055121 -21.461686 -8.322240 -2.425741 -0.185346 -0.127215 0.000000 0.000000 0.000000 2.213047 10.219788 0.042092 -55.657800 -1.740560 3.876052 -3.085741 -36.959216 0.001639 -1.958174 1.344925 -0.019518 -0.114260 0.069069 0.000000 0.000000 0.000000 0.000000 0.000000 0.000000 0.000000 14.213488 -20.614198 -0.896320 64.965556 -9.856627 -18.881987 4.230155 23.120048 0.009092 4.512033 2.868029 0.112408 0.103470 -0.039469 -0.000000 0.000000 0.000000 0.000000 0.000000 0.000000 0.000000 
